<mxfile host="app.diagrams.net" modified="2023-12-03T13:49:57.274Z" agent="Mozilla/5.0 (Macintosh; Intel Mac OS X 10_15_7) AppleWebKit/537.36 (KHTML, like Gecko) Chrome/119.0.0.0 Safari/537.36" version="22.1.5" etag="B-_UAw1jCh5JTdF25nL_" type="github">
  <diagram name="페이지-1" id="DKRTDaUAN7K8v3fQRNUj">
    <mxGraphModel>
      <root>
        <mxCell id="0" />
        <mxCell id="1" parent="0" />
      </root>
    </mxGraphModel>
  </diagram>
</mxfile>
